<svg id="Ebene_1" data-name="Ebene 1" xmlns="http://www.w3.org/2000/svg" viewBox="0 0 259.73 228.22"><defs><style>.cls-1{fill:#e3e4e4;}.cls-2{fill:#c6c7c8;}.cls-3{fill:#87888a;}.cls-4{fill:#004b93;}</style></defs><title>ekfs-logo1</title><path class="cls-1" d="M65.11,4.06V4.3h-.48V4.06Z" transform="translate(-1 0)"/><path class="cls-2" d="M63.94,140c-2.18,4.24-11.6,15.41-12.71,17-1.29,1.34-11.84,12.78-20.71,19.21-.75.55-3.86,2.34-5,3a45.88,45.88,0,0,1-10.92,4.42,13.3,13.3,0,0,1-4.37,0,13.31,13.31,0,0,1-2.88-1.2A10.8,10.8,0,0,1,3.7,179.2a22.38,22.38,0,0,1-2.19-6.55c-.8-5.15-.61-14,.25-20.83,1.1-8.84,3.56-19.77,8.49-36,1.53-5,5.13-13.88,5.81-15.36,6-12.93,9.15-17.22,16-26.14A76.85,76.85,0,0,1,41.64,64c1.3-1.31,2.67-2.84,1.38-4.32-2.17-2.47-6.31-1.84-13.11-2.77-7-1-11.17-6.64-11.17-9.85a15.62,15.62,0,0,1,2.43-7.63,65.92,65.92,0,0,1,4.37-6.55c2.1-2.89,6.48-8.53,8.85-11.19C38.26,17.29,45.45,9.89,50.5,6.88a70.51,70.51,0,0,1,9.18-4.64A64.07,64.07,0,0,1,69.2.17a28.55,28.55,0,0,1,11,1,27.35,27.35,0,0,1,4.8,2,10,10,0,0,1,3.79,3.39A20.18,20.18,0,0,1,91.08,11a68.92,68.92,0,0,1,2.19,6.55c.33,1.23,1,5,1,5A36.44,36.44,0,0,1,95,27.45c0,4.07-.85,7.19-3.6,9.94-1.67,1.67-4.55,3.7-7.93,3.17-1.64-.25-4.34-2.09-4.55-4.81-.29-3.64,2.5-16.62-1.41-19.59-4.2-3.2-10,.48-13.84,2.56-4.11,2.21-12.19,7.12-15.52,10.37-2.07,2-6.26,6.19-4.77,10.54C45.12,44.71,55,42.18,58.91,43c3.73.76,5.46,2.92,6,4.76,1.85,6.26-2.2,11.13-4.53,14-4.09,5-12.9,14.62-16.72,19.87-3.58,4.92-10.22,15.16-12.88,20.62s-6.43,17-8.21,22.77c-1.83,6-4.63,16.49-6.27,23.39-.83,3.5-2.44,10.64-1,15.09,1.07,3.3,5.14,1.11,6.68.27,2-1.11,17.8-12.9,19.75-14.2,2.5-1.77,5.19-4.1,8.38-6.46a102.1,102.1,0,0,1,10-7.16c2.11-1.48,6,.07,3.88,4.11Z" transform="translate(-1 0)"/><path class="cls-3" d="M94.6,198v2.92h4.74v11.72a9.63,9.63,0,0,0,.41,3.08,5.29,5.29,0,0,0,1.09,1.82,6,6,0,0,0,4.46,1.71,20.79,20.79,0,0,0,3.53-.45l0-3.24a7.85,7.85,0,0,1-2.35.52,3,3,0,0,1-3-2,10.32,10.32,0,0,1-.33-1.63V200.89h5.52V198h-5.52v-6.08l-3.81,1.25V198Zm21.29-9.17v4.14h4.17V188.8Zm.24,9.09v21h3.81v-21Zm10.22.08v3h4.91v17.88h3.81V200.93h5.47v-3H135c0-3.65.16-5.56,1.9-6.41a4.22,4.22,0,0,1,1.75-.36,10,10,0,0,1,1.82.24l.24-3.28a25.8,25.8,0,0,0-2.63-.17,7.88,7.88,0,0,0-3.17.53c-1.7.65-3.24,1.95-3.6,6a31.32,31.32,0,0,0-.13,3.49Zm18.41,0v2.92h4.74v11.72a9.63,9.63,0,0,0,.41,3.08,5.14,5.14,0,0,0,1.09,1.82,6,6,0,0,0,4.46,1.71,20.66,20.66,0,0,0,3.53-.45l0-3.24a7.85,7.85,0,0,1-2.35.52,3,3,0,0,1-3-2,9.26,9.26,0,0,1-.33-1.63V200.89h5.52V198h-5.52v-6.08l-3.81,1.25V198Zm21.41,0v12.77c.16,2.43.32,4.34,2,6.12a7.91,7.91,0,0,0,5.56,2.4,9,9,0,0,0,5.52-1.95c.64-.57,1.37-1.46,1.5-1.58l.16,3.12h3.48V197.93h-3.85l-.16,11.31a8.44,8.44,0,0,1-1.66,4.7,5.26,5.26,0,0,1-4.1,2,4.28,4.28,0,0,1-4.09-2.59,6,6,0,0,1-.45-1.91V198Zm30.57-.08h-3.65v20.92H197v-9.93c0-2,.12-3.82,1.25-5.48a5.73,5.73,0,0,1,4.59-2.64,4.61,4.61,0,0,1,2.23.57c2,1.06,2.18,3.37,2.31,4l.12,13.5h3.81V207.46c0-2.44,0-4.59-1.34-6.7a7.08,7.08,0,0,0-6.08-3.28,9.47,9.47,0,0,0-5.6,1.82,12.71,12.71,0,0,0-1.54,1.59v-3Zm38.4,3.2a8.57,8.57,0,0,0-1.58-1.82,8.92,8.92,0,0,0-5.55-1.83,8.71,8.71,0,0,0-5.23,1.7c-.41.33-.94.82-1.3,1.18a11.82,11.82,0,0,0-2.72,8.23c0,5.6,2.23,8,4.3,9.25a9.14,9.14,0,0,0,10.26-.41,11,11,0,0,0,1.54-1.5c.12,2.43.24,4.83-1.3,6.9-1,1.37-2.31,2.14-5.63,2.18-2.07,0-3.41-.36-7.18-1.86l-.41,3.61a25.11,25.11,0,0,0,7.87,1.5c2.84,0,6.65-.81,8.47-3.12a12.43,12.43,0,0,0,1.55-3,21,21,0,0,0,.4-2.19c.16-1.54.12-3.41.16-6.82,0-5.06,0-10.17,0-15.24l-3.65,0v3.24Zm-12.28,7.26c0-1.06,0-4.42,2.75-6.53a4.91,4.91,0,0,1,3.13-1.17,6.08,6.08,0,0,1,5.75,4.46,11.85,11.85,0,0,1,.53,3.32,7.41,7.41,0,0,1-3.89,6.94,5.56,5.56,0,0,1-2.31.52,6.12,6.12,0,0,1-3-.77c-2.31-1.34-3-4.05-3-6.77Z" transform="translate(-1 0)"/><path class="cls-4" d="M87.66,190.75a24.44,24.44,0,0,0-6.85-1c-1,0-4.82-.08-7.58,2.43a7.92,7.92,0,0,0-2.47,6c0,3.25,1.54,5.35,4.29,6.86a43.21,43.21,0,0,0,4.3,1.86c2.15.89,3.08,1.34,3.65,2.39a3.1,3.1,0,0,1,.45,1.58,3.32,3.32,0,0,1-.45,1.67c-1.22,2.15-4,2.11-4.58,2.11a14.91,14.91,0,0,1-5-1,12.29,12.29,0,0,1-1.54-.77l-.49,5.19a24.57,24.57,0,0,0,7.5,1.14,16,16,0,0,0,4.55-.57,8.35,8.35,0,0,0,6-8.15,7.88,7.88,0,0,0-4.79-7.38,31.66,31.66,0,0,0-3.77-1.58,12.7,12.7,0,0,1-3.12-1.5,3.1,3.1,0,0,1-.73-3.94c1.1-2,4.26-1.9,4.5-1.9a13.21,13.21,0,0,1,4.34.73c.41.16.81.36,1.22.52l.52-4.74Z" transform="translate(-1 0)"/><path class="cls-3" d="M98.69,152.37H95c0,1,.08,2,.13,3,.12,3.2,0,6.37,0,9.57v8.27h3.93V163.07a9.88,9.88,0,0,1,1.42-5.15,5.3,5.3,0,0,1,4.22-2.43,10.16,10.16,0,0,1,2.63.48v-3.68c-.85-.08-1.74-.21-2.55-.21a5.74,5.74,0,0,0-4.79,2.15,15.62,15.62,0,0,0-1.18,1.62l-.2-3.48Zm31.87,11.47a25,25,0,0,0-.48-5,10.05,10.05,0,0,0-1.46-3.29,7.53,7.53,0,0,0-4.5-3.2,11.45,11.45,0,0,0-2.64-.33,9.66,9.66,0,0,0-4,.77,9.11,9.11,0,0,0-3.21,2.4,11.2,11.2,0,0,0-2.71,7.42,11.64,11.64,0,0,0,3.81,8.8,10.62,10.62,0,0,0,6.73,2.27c1.9,0,3.28-.28,6.77-1.42v-3.65a13.68,13.68,0,0,1-6.2,1.87,7,7,0,0,1-6.13-3.21,15,15,0,0,1-1.09-3.4h15.12Zm-15.12-3a9.91,9.91,0,0,1,1.86-4.13,5.56,5.56,0,0,1,4-1.83,5.08,5.08,0,0,1,2.67.77c2,1.22,2.32,3,2.68,5.19Zm33.74-8.11a20.53,20.53,0,0,0-5.11-.89c-2.52,0-5.15,1-6.33,3.08a5.6,5.6,0,0,0-.69,2.8,5.48,5.48,0,0,0,1.34,3.77,10.76,10.76,0,0,0,2.15,1.58c.85.49,1.7,1,2.6,1.46a9.64,9.64,0,0,1,1.86,1.14,2.85,2.85,0,0,1,.73,1.82c0,1.18-1,2.8-3.69,2.8a11.74,11.74,0,0,1-4.95-1.5l-.28,3.49a17.85,17.85,0,0,0,5.84,1.25c2.51,0,5.19-1,6.45-3.12a6.42,6.42,0,0,0,.81-3.12,6,6,0,0,0-1.42-4,9.57,9.57,0,0,0-1.78-1.3c-.86-.49-1.75-.89-2.6-1.34-1.26-.65-3-1.54-3-3.16a2.86,2.86,0,0,1,.4-1.26,3.6,3.6,0,0,1,3.05-1.3,12.77,12.77,0,0,1,4.38,1l.28-3.25Zm25.91,11.07a24.12,24.12,0,0,0-.49-5,9.83,9.83,0,0,0-1.46-3.29,7.53,7.53,0,0,0-4.5-3.2A11.45,11.45,0,0,0,166,152a9.72,9.72,0,0,0-4,.77,9,9,0,0,0-3.2,2.4,11.17,11.17,0,0,0-2.72,7.42,11.67,11.67,0,0,0,3.81,8.8,10.65,10.65,0,0,0,6.73,2.27c1.91,0,3.29-.28,6.78-1.42v-3.65a13.72,13.72,0,0,1-6.21,1.87,7,7,0,0,1-6.12-3.21,15.19,15.19,0,0,1-1.1-3.4h15.13Zm-15.13-3a9.93,9.93,0,0,1,1.87-4.13,5.52,5.52,0,0,1,4-1.83,5.15,5.15,0,0,1,2.68.77c2,1.22,2.31,3,2.68,5.19Zm26.2-8.59h-3.65v20.92h3.89v-9.94c0-2,.12-3.81,1.26-5.47a5.73,5.73,0,0,1,4.58-2.64,4.54,4.54,0,0,1,2.23.57c2,1.06,2.19,3.37,2.31,4l.12,13.5h3.82v-11.4c0-2.43,0-4.58-1.34-6.69a7.09,7.09,0,0,0-6.08-3.28,9.47,9.47,0,0,0-5.6,1.82,12,12,0,0,0-1.54,1.59v-3Zm23-9.09v4.14h4.18V143.2Zm.24,9.09v21h3.82v-21Zm12.41.08v12.77c.16,2.43.33,4.34,2,6.12a7.89,7.89,0,0,0,5.55,2.4,9,9,0,0,0,5.52-1.95,20,20,0,0,0,1.5-1.58l.16,3.12h3.49V152.33H236.2L236,163.64a8.39,8.39,0,0,1-1.66,4.7,5.23,5.23,0,0,1-4.09,2,4.28,4.28,0,0,1-4.1-2.59,6.65,6.65,0,0,1-.45-1.91v-13.5Zm38.16.4a20.45,20.45,0,0,0-5.11-.89c-2.51,0-5.15,1-6.32,3.08a5.6,5.6,0,0,0-.69,2.8,5.49,5.49,0,0,0,1.33,3.77,10.76,10.76,0,0,0,2.15,1.58c.86.49,1.71,1,2.6,1.46a9.35,9.35,0,0,1,1.86,1.14,2.8,2.8,0,0,1,.73,1.82c0,1.18-1,2.8-3.69,2.8a11.66,11.66,0,0,1-4.94-1.5l-.29,3.49a17.85,17.85,0,0,0,5.84,1.25c2.52,0,5.19-1,6.45-3.12a6.42,6.42,0,0,0,.81-3.12,6,6,0,0,0-1.42-4,9,9,0,0,0-1.78-1.3c-.85-.49-1.75-.89-2.6-1.34-1.25-.65-3-1.54-3-3.16a2.78,2.78,0,0,1,.41-1.26,3.57,3.57,0,0,1,3-1.3,12.72,12.72,0,0,1,4.38,1l.28-3.25Z" transform="translate(-1 0)"/><polygon class="cls-4" points="71.05 144.66 71.05 173.29 76.89 173.29 76.89 161.09 86.54 161.09 86.54 156.38 76.89 156.38 76.89 149.57 86.95 149.57 86.95 144.66 71.05 144.66"/><path class="cls-3" d="M104.57,106.77h-3.65c0,1,.08,2,.13,3,.12,3.2,0,6.36,0,9.57v8.27H105V117.47a9.88,9.88,0,0,1,1.42-5.15,5.3,5.3,0,0,1,4.22-2.43,9.64,9.64,0,0,1,2.63.49v-3.7c-.85-.08-1.74-.2-2.55-.2a5.75,5.75,0,0,0-4.79,2.15,15.11,15.11,0,0,0-1.17,1.62l-.21-3.48Zm13.83,10.58c0,1.46.24,5.68,3.53,8.4a10.83,10.83,0,0,0,6.85,2.31c1.95,0,7.5-.57,9.85-6.09a12.33,12.33,0,0,0,1-4.86c0-2-.45-7.1-5.48-9.57a11.64,11.64,0,0,0-5.06-1.18,10.24,10.24,0,0,0-9.66,6.21,12.11,12.11,0,0,0-1,4.78Zm4.14-.36a7.85,7.85,0,0,1,3.52-6.61,6.47,6.47,0,0,1,3.25-.94c2.35,0,6.28,1.75,6.28,7.42,0,3-1,5.76-3.56,7.26a6.41,6.41,0,0,1-3.09.85,6.06,6.06,0,0,1-3.16-.89c-3.32-2-3.32-6-3.24-7.09Zm.85-17.24v3.81h3.69V99.75Zm7.7-.08v3.85h3.61V99.67Zm19.71,7h-3.65v20.92H151v-9.93c0-2,.12-3.82,1.26-5.48a5.7,5.7,0,0,1,4.58-2.63,4.56,4.56,0,0,1,2.23.56c2,1.06,2.19,3.37,2.31,4l.13,13.5h3.81V116.26c0-2.44,0-4.59-1.34-6.69a7.08,7.08,0,0,0-6.08-3.29,9.41,9.41,0,0,0-5.6,1.83,11.49,11.49,0,0,0-1.54,1.58v-3Zm41,11.55a25,25,0,0,0-.48-5,10.05,10.05,0,0,0-1.46-3.29,7.53,7.53,0,0,0-4.5-3.2,11.45,11.45,0,0,0-2.64-.33,9.51,9.51,0,0,0-4,.78,9,9,0,0,0-3.21,2.39,11.2,11.2,0,0,0-2.71,7.42,11.64,11.64,0,0,0,3.81,8.8,10.64,10.64,0,0,0,6.73,2.27c1.9,0,3.28-.29,6.77-1.42V123a13.67,13.67,0,0,1-6.2,1.86,7,7,0,0,1-6.13-3.2,15.59,15.59,0,0,1-1.09-3.41Zm-15.12-3a9.68,9.68,0,0,1,1.87-4.13,5.52,5.52,0,0,1,4-1.83,5.15,5.15,0,0,1,2.68.77c2,1.22,2.31,3,2.67,5.19Zm26-8.51h-3.65c0,1,.08,2,.13,3,.12,3.2,0,6.36,0,9.57v8.27h3.93V117.47a9.88,9.88,0,0,1,1.42-5.15,5.3,5.3,0,0,1,4.22-2.43,9.64,9.64,0,0,1,2.63.49v-3.7c-.85-.08-1.74-.2-2.55-.2a5.75,5.75,0,0,0-4.79,2.15,15.11,15.11,0,0,0-1.17,1.62l-.21-3.48Z" transform="translate(-1 0)"/><path class="cls-4" d="M77.77,99.06H72.05v28.63h5.72V114l.85,1.21c.53.73,1.1,1.46,1.7,2.19l8,10.3h7.59L83.49,112.24,86.37,109l8.92-9.94h-7.1l-7.3,8.52L79,109.85l-1.22,1.58V99.06Z" transform="translate(-1 0)"/><path class="cls-3" d="M96.87,51.4V82h3.85V51.4Zm23.64,10.17a20.53,20.53,0,0,0-5.11-.89c-2.51,0-5.15,1-6.33,3.08a5.67,5.67,0,0,0-.68,2.8,5.46,5.46,0,0,0,1.33,3.77,11.38,11.38,0,0,0,2.15,1.59c.85.48,1.71,1,2.6,1.45a9.64,9.64,0,0,1,1.86,1.14,2.81,2.81,0,0,1,.73,1.83c0,1.17-1,2.79-3.69,2.79a11.66,11.66,0,0,1-4.94-1.5l-.29,3.49c3,1,4.3,1.26,5.84,1.26,2.51,0,5.19-1.06,6.45-3.13a6.42,6.42,0,0,0,.81-3.12,6,6,0,0,0-1.42-4,9.57,9.57,0,0,0-1.78-1.3c-.86-.49-1.75-.89-2.6-1.34-1.26-.65-3-1.54-3-3.16a2.78,2.78,0,0,1,.41-1.26,3.57,3.57,0,0,1,3-1.3,12.66,12.66,0,0,1,4.37,1l.29-3.25Zm25.87,11.07a24.12,24.12,0,0,0-.49-5,9.83,9.83,0,0,0-1.46-3.29,7.51,7.51,0,0,0-4.5-3.2,11.39,11.39,0,0,0-2.63-.33,9.73,9.73,0,0,0-4,.77,9,9,0,0,0-3.2,2.4,11.16,11.16,0,0,0-2.72,7.42,11.67,11.67,0,0,0,3.81,8.8,10.72,10.72,0,0,0,6.73,2.27c1.91,0,3.29-.29,6.78-1.42V77.39a13.71,13.71,0,0,1-6.21,1.86,7,7,0,0,1-6.12-3.2,15.22,15.22,0,0,1-1.1-3.41Zm-15.13-3a9.93,9.93,0,0,1,1.87-4.13,5.52,5.52,0,0,1,4-1.83,5.15,5.15,0,0,1,2.68.77c2,1.22,2.31,3,2.68,5.19Z" transform="translate(-1 0)"/><polygon class="cls-4" points="71.05 53.46 71.05 82.09 88.16 82.09 88.16 77.27 76.93 77.27 76.93 69.81 87.11 69.81 87.11 65.1 76.93 65.1 76.93 58.29 88.04 58.29 88.04 53.46 71.05 53.46"/></svg>